<svg xmlns="http://www.w3.org/2000/svg" viewBox="380 650 1200 550"><g data-name="Livello 4"><path d="M771.81 894.36c158.09-82.57 327.46-142.67 500.62-184.87 65.15-15.37 131.11-28.95 198.09-33.59 28.92-1.48 115.01-6.53 100.22 42.2-10.39 30.09-55.11 66.07-80.18 86.23-26.35 20.78-53.72 40.25-81.4 59.15-2.87 1.96-6.78 1.21-8.74-1.66s-1.21-6.78 1.66-8.74c18.5-12.32 36.81-24.91 54.79-37.93 30.08-22.16 88.26-64.77 103.18-97.69l.65-1.72.33-.86.25-.86c1.48-4.61 1.51-9-.22-12.51-11.42-19.96-68.75-17.57-90.02-16.66-110.83 7.47-219.53 34.76-326.17 64.89-127.85 35.84-256.26 88.2-373.05 144.63Z" style="fill:#e64528"/><path d="M1182.44 1009.39c-161.99 72.84-335.77 120.61-512.15 141.68-40.59 3.59-176.09 17.89-167.68-48.26 4.22-25.92 26.02-50.98 43.16-69.93 12.25-13.2 25.21-25.59 38.46-37.61a6.282 6.282 0 0 1 8.88.44 6.282 6.282 0 0 1-.44 8.88c-25.87 23.25-52.17 47.27-70.41 77.05-7.6 13.14-14.89 30.55-3.45 43.14 19.79 20.54 70.2 20.92 97.84 20.9 88.5-2.03 176.1-18.86 262.3-38.2 103.74-23.8 205.57-56.09 303.07-99.01.25-.11.55 0 .66.26.11.25 0 .54-.25.66Zm-170.38 78.97c78.98 28.67 161.62 46.61 245 56.21 55.46 6.21 111.58 9.03 167.24 5.17 30.27-2.38 95.53-8.92 113.62-34.61 17.88-27.11-49.37-72.09-68.94-85.5-2.9-1.93-3.67-5.85-1.73-8.74 1.95-2.92 5.94-3.66 8.82-1.65 17.45 12.2 34.65 25.12 49.86 40.22 19.28 19.08 39.74 47.97 12.56 70.18-27.28 21.37-79.6 26.16-113.66 28.31-84.38 4.08-168.87-5.47-251.5-22.04-54.99-11.26-109.2-26.54-161.62-46.62a.503.503 0 0 1 .35-.94Zm-48.12-294.17c-74.91-20.37-151.17-35.74-228.19-45.26-51.07-5.98-102.98-10.26-154.25-6.07-21.63 2.14-75.1 8.2-74.05 37.03 2.32 32.47 59.56 77.03 84.77 96.77a6.281 6.281 0 0 1 1.16 8.82c-2.14 2.79-6.17 3.28-8.91 1.09-10.2-8.13-20.23-16.51-29.98-25.25-21.16-19.47-66.52-60.86-55.28-92.47 21.13-54.03 188.61-31.68 237.23-25.21 76.99 10.98 153.16 27.81 227.77 49.6.26.08.42.36.34.62-.08.26-.35.41-.61.34Z" style="fill:#252a5a"/></g><text data-name="Livello 1" style="stroke-miterlimit:10;font-family:HiraKakuStdN-W8-83pv-RKSJ-H,&quot;Hiragino Kaku Gothic StdN&quot;;font-size:154.39px" transform="translate(401.11 999.96)"><tspan x="0" y="0" style="stroke:#e64528;fill:#e64528">E</tspan><tspan x="112.55" y="0" style="stroke:#252a5a;fill:#252a5a">-Club Uni</tspan><tspan x="947.04" y="0" style="letter-spacing:-.1em;stroke:#252a5a;fill:#252a5a">T</tspan><tspan x="1050.94" y="0" style="stroke:#252a5a;fill:#252a5a;letter-spacing:0">n</tspan></text></svg>