<svg xmlns="http://www.w3.org/2000/svg" version="1.1" xmlns:xlink="http://www.w3.org/1999/xlink" width="512" height="512" x="0" y="0" viewBox="0 0 64 64" style="enable-background:new 0 0 512 512" xml:space="preserve" class=""><g><g data-name="Neural network"><path d="M54 21a4 4 0 1 1 4-4 4 4 0 0 1-4 4zm0-6a2 2 0 1 0 2 2 2 2 0 0 0-2-2zM46 16h2v2h-2zM47 31a4 4 0 1 1 4-4 4 4 0 0 1-4 4zm0-6a2 2 0 1 0 2 2 2 2 0 0 0-2-2zM39 26h2v2h-2zM58 40a4 4 0 1 1 4-4 4 4 0 0 1-4 4zm0-6a2 2 0 1 0 2 2 2 2 0 0 0-2-2zM50 35h2v2h-2zM50 5h2v2h-2zM58 62a4 4 0 1 1 4-4 4 4 0 0 1-4 4zm0-6a2 2 0 1 0 2 2 2 2 0 0 0-2-2zM50 57h2v2h-2zM53 52a4 4 0 1 1 4-4 4 4 0 0 1-4 4zm0-6a2 2 0 1 0 2 2 2 2 0 0 0-2-2zM45 47h2v2h-2zM58 10a4 4 0 1 1 4-4 4 4 0 0 1-4 4zm0-6a2 2 0 1 0 2 2 2 2 0 0 0-2-2z" fill="#e74528" opacity="1" data-original="#000000" class=""></path><path d="M43 47h-9a3 3 0 0 0-3 3v4a6 6 0 0 1-6.994 5.921 5.954 5.954 0 0 1-4.9-7.018A7 7 0 0 0 25 46a1 1 0 0 1 2 0v1h2v-1a3 3 0 0 0-6 0 5 5 0 1 1-10-.155A5.171 5.171 0 0 1 18.251 41H20a5.006 5.006 0 0 0 5-5v-1h-2v1a3 3 0 0 1-3 3h-1.749a7.227 7.227 0 0 0-7.171 5.992c-.029 0-.051.008-.08.008a4 4 0 0 1 0-8v-2a5.991 5.991 0 0 0-4.831 2.456A7.9 7.9 0 0 1 4 32a8 8 0 0 1 13.452-5.854l1.363-1.463A9.917 9.917 0 0 0 9.5 22.328 7 7 0 0 1 15 11a6.837 6.837 0 0 1 2.115.332A7.993 7.993 0 0 0 25 18h1a1 1 0 0 1 1 1v3h2v-3a3 3 0 0 0-3-3h-1a6 6 0 0 1-6-6.085A6.115 6.115 0 0 1 24.914 4a5.862 5.862 0 0 1 4.3 1.728A5.958 5.958 0 0 1 31 10v5a3 3 0 0 0 3 3h10v-2H34a1 1 0 0 1-1-1v-5a8 8 0 0 0-8.114-8 8.057 8.057 0 0 0-7.844 7.242 8.985 8.985 0 0 0-9.479 13.81A10 10 0 0 0 2 32a9.876 9.876 0 0 0 3.24 7.337A5.985 5.985 0 0 0 11 47h.077a6.969 6.969 0 0 0 6 5.937 8.145 8.145 0 0 0-.077.973 8.019 8.019 0 0 0 6.692 7.99 8.155 8.155 0 0 0 1.29.1A7.99 7.99 0 0 0 33 54v-4a1 1 0 0 1 1-1h9z" fill="#e74528" opacity="1" data-original="#000000" class=""></path><path d="M23 31h2v2h-2zM31 31h2v2h-2zM27 24h2v2h-2zM13 35v2a4 4 0 1 0-4-4h2a2 2 0 1 1 2 2zM12 18a3 3 0 0 1 3-3v-2a5.006 5.006 0 0 0-5 5zM25 8a2 2 0 0 1 2 2h2a4 4 0 0 0-4-4zM26 55a1 1 0 0 1-1 1h-1v2h1a3 3 0 0 0 3-3v-1h-2zM44 5a3 3 0 0 0-3 3 1 1 0 0 1-1 1h-5v2h5a3 3 0 0 0 3-3 1 1 0 0 1 1-1h4V5zM43 56a3 3 0 0 0-3-3h-5v2h5a1 1 0 0 1 1 1 3 3 0 0 0 3 3h4v-2h-4a1 1 0 0 1-1-1zM31 38v7h2v-7a1 1 0 0 1 1-1h14v-2H34a3 3 0 0 0-3 3zM37 28v-2h-3a1 1 0 0 1-1-1v-5h-2v5a3 3 0 0 0 3 3z" fill="#e74528" opacity="1" data-original="#000000" class=""></path></g></g></svg>