<?xml version="1.0" encoding="UTF-8"?>
<svg id="Livello_2" data-name="Livello 2" xmlns="http://www.w3.org/2000/svg" viewBox="0 0 531.72 424.23">
  <defs>
    <style>
      .cls-1 {
        fill: #fe594b;
      }

      .cls-2 {
        fill: #282c5d;
      }
    </style>
  </defs>
  <g id="Livello_1-2" data-name="Livello 1">
    <g>
      <path d="M484.43,206.85c-.21.03-.44.03-.65.03v-.03h.65Z"/>
      <path d="M485.08,206.85v.03c-.21,0-.44,0-.65-.03h.65Z"/>
      <g>
        <path class="cls-1" d="M460.98,30.81c-5.49-.34-9.89,1.65-12.72,3.41C434.89,18.88,413.76,1.65,385.46.12c-12.18-.71-22.97,1.75-31.68,4.94-.4.13-.73.25-1.1.41-.05.39-.06.75-.07,1.17-.51,9.27.32,20.27,4.53,31.74,9.73,26.62,32.38,41.79,50.98,50.07-.89,3.19-1.5,8.05.43,13.2,2.96,7.87,10.76,13.34,19.92,14.01-.89-6.88-1.78-13.77-2.66-20.65,5.2,1.47,8.86,2.22,10.05,2.43,4.74-6.57,9.5-13.24,14.26-19.85,4.93-6.49,9.92-12.99,14.84-19.48-.58-1.04-2.33-4.35-5.29-8.86,6.84-1.16,13.69-2.32,20.53-3.49-3.31-8.56-10.82-14.42-19.21-14.95ZM407.39,45.96c-4.6,6.22-13.37,7.52-19.59,2.92s-7.52-13.37-2.92-19.59c4.6-6.22,13.37-7.52,19.59-2.92,6.22,4.6,7.52,13.37,2.92,19.59Z"/>
        <path class="cls-1" d="M453.3,79.95c-.16.31-.4.62-.6.9-4.21,5.86-8.46,11.75-12.66,17.68,2.18.52,4.4,1.06,6.56,1.62l24.06-32.5c-1.13-1.94-2.33-3.86-3.46-5.8-4.41,5.71-8.84,11.53-13.21,17.27-.2.28-.44.59-.68.84Z"/>
        <path class="cls-1" d="M461.79,85.32c-.14.14-.29.31-.45.5-.18.24-.33.48-.43.68-3.23,5.01-3.28,8.62-2.92,10.79,1.79,10.61,19.34,19.32,44.25,18.83-6.84-23.93-20.32-38.12-30.99-36.74-2.03.27-5.53,1.28-9.46,5.94ZM478.74,98.75c-9.44.19-16.09-3.12-16.77-7.13-.14-.82-.12-2.19,1.1-4.09.04-.08.09-.17.16-.26.06-.08.12-.14.17-.19,1.49-1.76,2.82-2.15,3.59-2.25,4.04-.52,9.15,4.85,11.74,13.92Z"/>
      </g>
      <path class="cls-2" d="M263.83,103.31v1.9c-.27-.33-.56-.62-.83-.95.27-.33.56-.62.83-.95Z"/>
      <path class="cls-2" d="M263,104.25c-.3.33-.56.62-.86.95v-1.9c.3.33.56.62.86.95Z"/>
      <path class="cls-2" d="M84.26,377.04c-16.42-.59-30.37-3.69-34.67-11.89-1.21-2.31-1.25-4.25-1.27-7.1-.14-22.23,25.23-39.36,35.94-45.68v-18.43C30.53,313.14-2.43,345.75.14,376.3c1.52,18.15,15.13,30.3,16.76,31.71,15.81,13.72,39.91,17.56,67.36,15.84v-46.81Z"/>
      <path class="cls-2" d="M528.07,132.96c-4.12-7.21-10.9-11.2-16.08-13.43-.44.67-.88,1.33-1.32,2,4.29,2.5,9.55,6.47,12.47,12.5,14.24,29.4-41.76,77.65-80.86,107.09v29.85c15.5-12.1,50.33-41.91,75.01-82.66,21.68-35.8,13.17-51.17,10.78-55.35Z"/>
      <g>
        <path class="cls-2" d="M83.73,344.03c0,.61.2,32.02.21,32.62,23.35.65,51.23-3.56,63.5-5.42,43.63-6.6,75.4-18.12,83.15-20.98,66.04-24.34,120.02-44.24,182.13-87.71,6.62-4.63,17.42-12.19,29.75-21.53.04-6.01.07-12.01.11-18.02-3.5-22.42-6.96-44.85-10.46-67.27-3.02,13.24-6.04,26.48-9.06,39.72-2.07-9.51-4.18-18.99-6.25-28.47-2.31,10.43-4.59,20.85-6.87,31.28-.95,15.61-1.9,31.25-2.81,46.89-12.15-11.7-24.26-23.37-36.38-35.04-2.9-31.07-5.78-62.12-8.65-93.19-3.91,24.97-7.85,49.97-11.76,74.94-10.52-10.28-21.03-20.59-31.55-30.87-2.9-31.64-5.81-63.24-8.71-94.85-2.7,17.42-5.39,34.87-8.09,52.31-2.67-17.8-5.3-35.58-7.97-53.38-3.17,21.06-6.34,42.12-9.51,63.18-6.96-7.85-13.92-15.64-20.91-23.46-.27-.33-.56-.62-.83-.95-.3.33-.56.62-.86.95-6.96,7.82-13.95,15.61-20.91,23.46l-9.51-63.18c-2.67,17.8-5.3,35.58-7.94,53.38-2.73-17.45-5.42-34.89-8.12-52.31-2.9,31.61-5.81,63.21-8.71,94.85-10.52,10.28-21.03,20.59-31.52,30.87-3.94-24.97-7.85-49.97-11.79-74.94-2.87,31.07-5.75,62.12-8.62,93.19-12.15,11.67-24.26,23.34-36.38,35.04-.95-15.64-1.9-31.28-2.81-46.89-2.31-10.43-4.59-20.85-6.9-31.28-2.07,9.48-4.15,18.96-6.25,28.47-3.02-13.24-6.04-26.48-9.06-39.72-3.47,22.42-6.96,44.85-10.43,67.27.07,11.71.15,23.41.22,35.12.02,2.94.54,85.37.54,85.92Z"/>
        <path class="cls-2" d="M433.03,277.92c-60.76,42.11-115.1,79.77-208.55,110.74-41.1,13.62-95.05,31.47-140.24,34.65,0,.18,0,.35,0,.53h357.07c.32-50.96.64-101.91.97-152.87-5.25,4.15-8.65,6.55-9.25,6.96Z"/>
      </g>
    </g>
  </g>
</svg>